<?xml version="1.0" encoding="utf-8"?>
<!-- Svg Vector Icons : http://www.onlinewebfonts.com/icon -->
<!DOCTYPE svg PUBLIC "-//W3C//DTD SVG 1.1//EN" "http://www.w3.org/Graphics/SVG/1.1/DTD/svg11.dtd">
<svg version="1.1" xmlns="http://www.w3.org/2000/svg" xmlns:xlink="http://www.w3.org/1999/xlink" x="0px" y="0px" viewBox="0 0 1000 1000" enable-background="new 0 0 1000 1000" xml:space="preserve">
<metadata> Svg Vector Icons : http://www.onlinewebfonts.com/icon </metadata>
<g><g transform="translate(0.000000,511.000000) scale(0.100000,-0.100000)"><path d="M4605.7,4970.3c-701.7-69.7-1257.5-228.3-1828.2-517.8c-513.6-260-915.1-553.7-1299.8-951.1c-1828.2-1887.3-1838.7-4875.8-21.1-6759c608.7-631.9,1342.1-1075.8,2166.3-1310.4c1952.9-555.8,4036.8,145.8,5249.9,1773.2c215.6,287.5,393.1,593.9,393.1,674.2c0,122.6-137.4,207.1-262.1,158.5c-19-6.3-90.9-109.9-162.7-230.4C8175.4-3310.4,7057.4-4086,5763.9-4327c-1382.2-255.7-2863.8,186-3893,1162.4C691.5-2042.3,201.2-376.8,592.2,1189.2c158.5,638.3,492.4,1304,885.5,1777.5c1135,1361.1,2918.7,1944.4,4607.4,1509c951.1-245.2,1821.8-811.6,2420-1574.6c158.5-202.9,380.4-538.9,380.4-577c0-10.6-112-78.2-247.3-154.3c-319.1-175.4-353-202.9-353-302.2c0-48.6,14.8-93,44.4-120.5c46.5-46.5,1001.8-336.1,1111.7-336.1c90.9,0,135.3,33.8,171.2,131c61.3,169.1,287.4,987,287.4,1041.9c0,76.1-88.8,158.5-167,158.5c-38,0-154.3-50.7-289.5-124.7l-226.1-124.7L9103.2,2675c-272.6,435.4-682.6,904.6-1052.5,1202.6c-691.1,558-1538.6,929.9-2398.8,1052.5C5417.3,4963.9,4779,4987.2,4605.7,4970.3z"/><path d="M2807.1,2362.2c-99.3-40.1-139.5-154.3-86.7-245.2c14.8-25.4,530.5-587.5,1149.7-1249.1C4576.1,109.3,5013.6-343,5047.4-351.5c27.5-6.4,71.8-4.2,95.1,4.2c76.1,27.5,1692.9,1547.1,1705.6,1602c16.9,63.4-27.5,171.2-78.2,198.7c-21.1,12.7-67.6,21.1-103.6,21.1c-74,0-2.1,63.4-925.7-801c-528.4-490.3-646.7-593.9-667.9-570.6C4753.7,453.8,3016.4,2307.3,2976.2,2339C2914.9,2385.5,2879,2391.8,2807.1,2362.2z"/></g></g>
</svg>